<svg xmlns="http://www.w3.org/2000/svg" viewBox="0 0 120 120" width="120" height="120"><title>Transporte</title>
<rect width="120" height="120" rx="32" fill="#efebe0"/>
<path fill="#80dca5" d="M12.0 76.9C11.6 74.9 12.8 73.0 13.3 71.0C13.9 69.1 14.7 67.3 15.2 65.3C15.7 63.3 15.1 60.5 16.3 59.2C17.6 58.0 20.6 58.4 22.8 58.0C24.9 57.6 27.3 57.6 29.3 56.8C31.3 56.1 33.2 54.9 34.6 53.4C35.9 52.0 36.5 49.9 37.6 48.2C38.7 46.5 39.8 44.4 41.1 43.2C42.4 42.0 43.8 41.4 45.5 41.0C47.2 40.7 49.3 40.9 51.3 40.9C53.3 41.0 55.6 41.3 57.5 41.3C59.5 41.4 61.2 41.1 63.2 41.1C65.1 41.0 67.2 41.2 69.1 41.1C71.1 41.1 73.1 40.6 74.8 41.0C76.5 41.5 78.0 42.5 79.5 43.6C81.0 44.7 82.4 46.2 83.7 47.7C85.0 49.1 86.0 50.9 87.2 52.4C88.4 53.9 89.2 55.7 90.8 56.8C92.4 57.9 94.9 58.3 96.9 59.2C98.9 60.0 101.9 60.5 102.9 61.9C104.0 63.3 103.1 65.8 103.2 67.8C103.4 69.8 103.7 71.8 103.9 73.8C104.1 75.8 105.2 78.7 104.3 79.6C103.3 80.5 100.2 79.3 98.3 79.2C96.3 79.2 94.5 79.2 92.5 79.2C90.6 79.3 88.5 79.4 86.5 79.4C84.5 79.5 82.5 79.4 80.5 79.5C78.6 79.6 76.6 79.9 74.6 80.0C72.6 80.2 70.5 80.2 68.5 80.3C66.5 80.4 64.6 80.4 62.6 80.5C60.6 80.7 58.5 80.9 56.6 81.0C54.6 81.0 52.7 80.8 50.8 80.9C48.8 80.9 46.8 81.3 44.9 81.4C42.9 81.6 41.0 81.7 39.0 81.8C37.0 81.9 35.1 82.0 33.1 82.2C31.2 82.3 29.2 82.6 27.3 82.7C25.3 82.9 23.5 83.0 21.6 83.1C19.7 83.1 17.4 84.1 15.8 83.0C14.2 82.0 12.4 78.9 12.0 76.9Z"/>
<path fill="#17191c" d="M 16.7 74.2 Q 16.7 74.2 16.0 72.7 15.3 71.1 15.4 69.6 15.6 68.1 15.9 65.9 16.3 63.6 16.6 61.5 16.9 59.4 18.5 58.0 20.2 56.6 22.0 56.1 23.8 55.6 25.8 54.9 27.8 54.3 29.4 53.8 31.1 53.3 32.6 51.9 34.1 50.5 34.8 49.0 35.6 47.5 36.7 45.8 37.8 44.1 38.9 42.9 39.9 41.7 40.6 40.4 41.3 39.2 43.2 38.2 45.0 37.2 47.0 37.1 48.9 37.1 50.5 37.3 52.2 37.5 53.6 37.5 55.1 37.5 56.7 37.5 58.3 37.6 60.2 37.5 62.1 37.4 63.8 37.4 65.5 37.5 67.2 37.4 68.9 37.4 70.5 37.4 72.2 37.4 74.1 37.3 76.1 37.3 78.6 37.7 81.1 38.1 82.5 39.1 83.9 40.2 84.8 41.5 85.8 42.7 87.1 43.9 88.3 45.1 89.6 46.7 91.0 48.2 92.1 49.3 93.2 50.4 94.2 51.5 95.3 52.6 96.9 53.3 98.5 54.1 99.9 54.8 101.4 55.5 102.7 56.2 103.9 56.9 105.2 58.0 106.4 59.0 107.0 60.4 107.6 61.8 107.9 64.0 108.2 66.3 108.0 67.8 107.9 69.3 107.6 71.0 107.4 72.6 106.7 74.3 106.1 75.9 106.1 75.9 106.1 75.9 106.1 75.9 106.1 75.9 104.8 73.6 103.4 71.3 102.8 69.3 102.2 67.3 101.9 65.6 101.6 63.8 100.6 62.7 99.6 61.5 97.7 60.7 95.8 60.0 94.4 59.1 93.0 58.3 91.6 57.4 90.2 56.5 89.1 55.4 88.0 54.3 86.8 52.8 85.5 51.4 84.5 50.3 83.5 49.2 82.4 48.2 81.3 47.2 80.5 46.0 79.7 44.8 78.2 44.2 76.7 43.6 74.7 43.6 72.7 43.6 71.2 43.6 69.7 43.6 68.1 43.6 66.5 43.7 64.3 43.6 62.1 43.6 60.6 43.7 59.1 43.9 57.7 43.8 56.2 43.7 54.0 43.7 51.9 43.7 50.0 43.5 48.1 43.3 46.7 43.9 45.2 44.6 44.3 45.8 43.3 46.9 42.2 48.5 41.1 50.1 40.2 51.5 39.3 52.8 37.9 54.7 36.5 56.6 34.5 57.8 32.5 58.9 31.1 59.3 29.6 59.7 28.2 60.0 26.8 60.4 25.3 60.8 23.8 61.2 22.6 61.9 21.3 62.7 20.9 64.1 20.6 65.5 20.3 67.2 20.0 68.8 19.5 70.2 19.0 71.6 17.9 72.9 16.8 74.2 16.7 74.2 Z"/>
<path fill="#17191c" d="M 47.5 43.5 Q 47.5 43.5 48.7 43.0 49.9 42.5 51.0 42.3 52.2 42.2 53.3 42.2 54.4 42.3 55.8 42.2 57.2 42.1 58.7 42.2 60.2 42.3 61.7 43.2 63.2 44.1 63.4 45.3 63.6 46.4 63.5 47.7 63.5 49.0 63.6 50.0 63.7 51.1 63.8 52.4 63.9 53.8 63.4 55.5 62.9 57.3 61.7 57.8 60.6 58.3 59.1 58.5 57.7 58.7 56.3 58.7 54.8 58.7 53.8 58.7 52.7 58.6 51.6 58.5 50.4 58.4 49.2 58.5 48.0 58.5 46.9 58.4 45.8 58.3 43.3 57.2 40.9 56.2 40.9 56.2 40.9 56.2 40.9 56.2 40.9 56.2 42.4 55.6 44.0 55.1 45.5 54.8 47.0 54.5 48.1 54.5 49.3 54.5 50.5 54.5 51.7 54.5 53.0 54.6 54.2 54.7 55.7 54.7 57.2 54.7 58.6 54.7 59.9 54.7 60.0 53.5 60.1 52.3 60.0 51.3 59.9 50.2 59.9 49.1 59.8 47.9 60.0 46.6 60.2 45.3 59.2 45.5 58.1 45.7 56.5 45.6 55.0 45.5 53.4 45.4 51.9 45.3 50.8 45.1 49.6 44.9 48.6 44.2 47.5 43.5 47.5 43.5 Z"/>
<path fill="#17191c" d="M 67.7 44.0 Q 67.7 44.0 68.7 43.3 69.7 42.7 70.9 42.5 72.1 42.4 73.9 42.3 75.8 42.3 77.6 42.6 79.5 42.8 80.2 43.7 81.0 44.6 81.8 45.8 82.5 47.0 83.4 47.9 84.4 48.9 84.9 49.9 85.4 50.9 86.0 51.8 86.7 52.7 87.3 53.4 87.9 54.1 88.0 54.3 88.1 54.5 88.2 54.7 88.2 55.0 88.3 55.2 88.3 55.4 88.2 55.7 88.2 55.9 88.1 56.1 88.0 56.3 87.8 56.5 87.7 56.7 87.5 56.8 87.3 57.0 87.1 57.1 86.9 57.2 86.6 57.2 86.4 57.2 86.2 57.2 85.9 57.2 85.7 57.1 85.5 57.1 85.3 56.9 85.1 56.8 84.9 56.6 84.7 56.5 83.3 56.9 81.9 57.3 80.3 57.3 78.7 57.3 77.6 57.4 76.5 57.4 75.3 57.3 74.1 57.2 71.5 56.6 69.0 56.0 69.0 56.0 69.0 55.9 69.0 55.9 69.0 55.9 70.9 54.9 72.9 53.9 73.9 53.7 74.9 53.6 76.2 53.6 77.4 53.6 79.1 53.5 80.8 53.4 82.1 53.4 83.3 53.4 84.3 53.6 85.3 53.8 86.6 54.0 87.9 54.1 88.0 54.3 88.1 54.5 88.2 54.7 88.2 55.0 88.3 55.2 88.3 55.4 88.2 55.7 88.2 55.9 88.1 56.1 88.0 56.3 87.8 56.5 87.7 56.7 87.5 56.8 87.3 57.0 87.1 57.1 86.9 57.2 86.6 57.2 86.4 57.2 86.2 57.2 85.9 57.2 85.7 57.1 85.5 57.1 85.3 56.9 85.1 56.8 84.9 56.6 84.7 56.5 83.9 55.2 83.1 54.0 82.2 52.8 81.4 51.6 80.8 50.7 80.3 49.8 79.3 48.4 78.4 47.1 77.7 46.3 76.9 45.5 75.8 45.5 74.6 45.5 73.6 45.5 72.6 45.5 71.2 45.3 69.8 45.2 68.7 44.6 67.7 44.0 67.7 44.0 Z"/>
<path fill="#17191c" d="M45.8 79.5C45.4 80.4 44.9 83.9 43.8 85.5C42.6 87.1 40.8 88.6 38.9 89.1C37.0 89.7 34.4 89.5 32.6 88.9C30.7 88.2 28.8 86.8 27.7 85.2C26.6 83.7 25.8 81.4 25.8 79.5C25.8 77.6 26.7 75.5 27.8 73.9C29.0 72.4 30.9 70.7 32.9 70.1C34.8 69.5 37.6 69.6 39.5 70.3C41.3 71.0 43.0 72.6 44.2 74.3C45.3 75.9 46.0 79.2 46.2 80.1C46.5 81.0 46.2 78.6 45.8 79.5Z"/>
<path fill="#17191c" d="M95.9 80.5C95.6 81.6 95.5 84.6 94.4 86.3C93.3 87.9 91.4 89.6 89.6 90.2C87.8 90.8 85.4 90.7 83.5 90.0C81.6 89.4 79.4 88.1 78.3 86.5C77.1 84.9 76.5 82.5 76.6 80.5C76.7 78.5 77.5 76.1 78.6 74.4C79.7 72.7 81.4 71.0 83.2 70.4C85.1 69.7 87.7 69.9 89.6 70.5C91.6 71.0 93.6 72.2 94.7 73.8C95.9 75.3 96.3 78.7 96.5 79.8C96.7 81.0 96.3 79.4 95.9 80.5Z"/>
<path fill="#80dca5" d="M39.5 80.4C39.1 81.0 38.1 83.5 37.0 83.9C35.9 84.2 33.6 83.4 32.9 82.5C32.1 81.6 32.0 79.6 32.6 78.7C33.2 77.8 35.3 76.7 36.4 77.0C37.5 77.3 38.6 79.8 39.2 80.4C39.7 81.0 39.8 79.9 39.5 80.4Z"/>
<path fill="#80dca5" d="M89.9 79.6C89.5 80.2 88.5 82.4 87.4 82.7C86.3 83.0 84.0 82.3 83.4 81.4C82.7 80.6 82.8 78.4 83.4 77.5C84.1 76.7 86.3 75.9 87.2 76.2C88.2 76.5 88.8 78.8 89.2 79.3C89.7 79.9 90.2 79.0 89.9 79.6Z"/>
<path fill="#17191c" d="M 5.4 97.6 Q 5.4 97.6 6.5 96.9 7.5 96.2 8.7 96.0 9.9 95.7 11.3 95.6 12.6 95.5 14.1 95.5 15.5 95.6 16.9 95.5 18.3 95.4 19.9 95.5 21.5 95.5 22.8 95.3 24.2 95.1 25.7 95.2 27.3 95.3 29.0 95.4 30.6 95.5 31.9 95.6 33.1 95.7 35.0 95.8 37.0 95.8 38.4 95.8 39.9 95.8 41.1 96.0 42.3 96.1 44.4 96.2 46.5 96.3 48.0 96.3 49.4 96.3 50.7 96.4 52.0 96.5 53.8 96.6 55.6 96.6 56.8 96.5 58.0 96.5 59.7 96.5 61.4 96.6 63.1 96.5 64.7 96.4 66.0 96.5 67.2 96.7 69.2 96.6 71.1 96.6 72.4 96.5 73.6 96.5 75.4 96.4 77.2 96.3 78.9 96.2 80.7 96.1 82.2 96.1 83.8 96.1 85.2 96.0 86.6 96.0 88.8 96.0 90.9 95.9 92.8 96.0 94.7 96.0 95.9 95.9 97.1 95.9 98.9 95.8 100.6 95.8 102.1 95.8 103.6 95.9 104.9 95.9 106.2 95.9 107.8 96.4 109.5 96.9 111.2 97.7 113.0 98.5 113.0 98.5 113.0 98.5 113.0 98.5 113.0 98.5 110.7 99.4 108.5 100.3 106.8 100.5 105.1 100.7 103.7 100.8 102.2 100.8 101.0 100.8 99.7 100.7 98.5 100.8 97.3 101.0 95.7 101.0 94.2 101.0 92.7 101.0 91.3 101.0 90.0 101.0 88.6 101.0 87.3 101.0 86.0 101.1 84.6 101.1 83.2 101.1 81.9 101.1 80.5 101.2 79.0 101.3 77.5 101.5 75.9 101.5 74.4 101.5 72.7 101.5 70.9 101.6 69.7 101.6 68.4 101.6 67.0 101.6 65.6 101.6 64.3 101.7 63.1 101.8 61.6 101.6 60.2 101.4 58.7 101.5 57.2 101.5 55.8 101.5 54.3 101.4 52.6 101.4 50.9 101.5 49.6 101.3 48.3 101.1 46.7 100.9 45.0 100.8 43.8 100.9 42.6 101.1 40.8 100.8 39.0 100.5 37.3 100.5 35.6 100.5 33.7 100.3 31.7 100.2 30.5 100.2 29.3 100.2 27.7 100.1 26.2 100.0 24.4 99.8 22.5 99.7 21.0 99.6 19.4 99.6 17.9 99.6 16.3 99.6 14.8 99.5 13.3 99.4 11.7 99.3 10.1 99.2 8.9 99.0 7.6 98.8 6.5 98.2 5.4 97.6 5.4 97.6 Z"/>
<circle fill="#17191c" cx="63.8" cy="67.7" r="1.0"/>
<circle fill="#17191c" cx="66.8" cy="66.4" r="0.9"/>
<circle fill="#17191c" cx="65.9" cy="70.2" r="1.1"/>
<path fill="#17191c" d="M 7.8 44.0 Q 7.8 44.0 6.8 44.2 5.9 44.3 5.0 43.9 4.1 43.5 3.6 42.6 3.0 41.7 3.1 40.1 3.2 38.6 3.9 37.6 4.6 36.6 5.3 35.9 6.1 35.1 7.3 34.5 8.5 33.9 9.5 33.5 10.6 33.0 11.9 33.0 13.2 33.0 14.1 33.2 15.0 33.4 16.3 33.8 17.7 34.2 18.8 34.5 19.9 34.9 20.9 35.7 22.0 36.6 22.7 37.8 23.3 39.0 23.7 40.2 24.1 41.5 23.9 42.5 23.8 43.6 22.9 44.6 22.1 45.6 21.2 46.1 20.2 46.6 18.7 46.7 17.2 46.7 15.8 45.8 14.5 45.0 13.7 43.7 12.9 42.5 12.9 41.1 12.8 39.7 13.3 38.6 13.8 37.5 15.0 36.5 16.1 35.4 17.0 34.9 17.9 34.4 19.4 34.0 20.9 33.6 22.2 33.7 23.6 33.8 24.9 33.9 26.2 34.0 27.4 34.4 28.6 34.8 29.8 35.6 31.0 36.4 31.8 37.4 32.7 38.5 33.2 39.5 33.6 40.4 33.7 41.5 33.8 42.5 33.5 43.6 33.1 44.8 32.5 45.6 31.9 46.3 31.1 46.9 30.2 47.5 29.1 47.5 28.0 47.6 26.5 47.3 25.1 47.1 24.2 46.1 23.4 45.2 22.8 44.1 22.3 43.1 22.5 41.8 22.6 40.5 23.2 39.5 23.7 38.4 24.7 37.7 25.6 36.9 26.5 36.4 27.4 35.8 28.3 35.6 29.2 35.3 30.4 35.2 31.6 35.1 33.1 35.0 34.5 35.0 36.0 35.4 37.4 35.8 38.7 36.6 40.0 37.3 40.9 38.2 41.8 39.1 42.6 40.3 43.4 41.5 43.6 42.7 43.7 43.9 43.4 44.8 43.2 45.7 40.7 46.3 38.1 46.9 38.1 46.9 38.1 46.9 38.1 46.9 38.1 46.9 39.3 45.2 40.4 43.5 39.9 42.6 39.5 41.7 38.6 40.8 37.8 39.9 37.0 39.5 36.2 39.1 35.3 38.8 34.3 38.5 33.2 38.5 32.0 38.6 30.7 38.7 29.4 38.8 28.2 39.5 27.1 40.2 26.5 41.3 25.9 42.3 26.4 43.2 26.8 44.0 27.7 44.0 28.6 44.1 29.4 43.5 30.2 42.9 30.2 42.0 30.2 41.0 29.6 40.1 29.0 39.2 28.2 38.7 27.4 38.1 26.2 37.6 24.9 37.2 23.3 37.1 21.6 37.1 20.2 37.6 18.8 38.0 17.8 38.9 16.8 39.8 16.7 40.9 16.6 42.0 17.3 42.7 18.1 43.4 19.2 43.1 20.2 42.7 20.3 41.7 20.4 40.8 20.1 39.9 19.8 39.0 18.8 38.3 17.8 37.6 16.7 37.2 15.5 36.8 14.5 36.5 13.6 36.3 12.1 36.3 10.6 36.4 9.2 37.1 7.9 37.8 7.2 38.4 6.4 39.0 6.0 39.9 5.6 40.8 6.1 41.6 6.6 42.5 7.2 43.3 7.8 44.0 7.8 44.0 Z"/>
</svg>
